<svg width="975" height="975" xmlns="http://www.w3.org/2000/svg" xmlns:xlink="http://www.w3.org/1999/xlink" xml:space="preserve" overflow="hidden"><defs><clipPath id="clip0"><rect x="1712" y="-420" width="975" height="975"/></clipPath></defs><g clip-path="url(#clip0)" transform="translate(-1712 420)"><path d="M973.334 908.314C973.334 944.634 943.97 974.073 907.761 974.073L539.94 974.073 487.135 921.034 434.337 974.073 65.7185 974.073C29.5025 974.073 0.138247 944.634 0.138247 908.314L0.138247 539.473 52.3042 487.074 0.138247 434.673 0.138247 65.8326C0.138247 29.5135 29.5025 0.0732749 65.7185 0.0732749L436.955 0.0732749 487.135 50.4803 537.322 0.0732749 908.558 0.0732749C944.774 0.0732749 974.138 29.5135 974.138 65.8326L974.138 433.959 921.265 487.074 974.138 540.188Z" fill="#4EC3E0" fill-rule="evenodd" transform="matrix(1 0 0 -1 1712 555)"/><path d="M447.536 546.507 344.788 546.507 344.788 637.456 588.412 611.755 592.121 647.043 3.82964 709.062 0.120499 673.843 247.426 647.73 247.426 546.507 144.705 546.507C65.0978 546.507 0.360776 481.705 0.360776 402.094L0.360776 144.474C0.360776 64.8287 65.0978 0.0613611 144.705 0.0613611L447.536 0.0613611C527.143 0.0613611 591.88 64.8287 591.88 144.474L591.88 186.702 494.517 186.702 494.517 144.474C494.517 118.567 473.465 97.4703 447.536 97.4703L144.705 97.4703C118.776 97.4703 97.7235 118.567 97.7235 144.474L97.7235 402.094C97.7235 428.001 118.776 449.098 144.705 449.098L447.536 449.098C473.465 449.098 494.517 428.001 494.517 402.094L494.517 359.832 591.88 359.832 591.88 402.094C591.88 481.705 527.143 546.507 447.536 546.507" fill="#FFFFFF" fill-rule="evenodd" transform="matrix(1 0 0 -1 1903 422)"/></g></svg>