<?xml version="1.0" encoding="utf-8"?><svg xmlns="http://www.w3.org/2000/svg" version="1.1" baseProfile="tiny" width="800" height="600" viewBox="0 0 800 600"><g><g stroke="#000000" stroke-width=".98" fill="#FFFFFF"><path d="m444.83 38.87l-7.2-31.52-6.31-2.35-10.89 7.06-18.57 27.87-5.69.4-5.15 11.8 10.64 4.78-7.55 10.36-5.34 18.77 6.28 16.38-17.19-6.22-4.34 2.59-29.93-9.69-5.95 4.34-11.86 39.08 9.71 8.62-9.14 25.39-9.8 6.83 6.96 8.74-14.85 17.99-12.35 4.4-14.53 13.71-24.76 17.66-11.94 11.5-13.19-2.69-20.18 19.38-8.08 25.01-24.66 25.92 7.17 10.66-16.18 20.66 18.1 4.12 9.81 6.79-3.44 28.79 12.48 3.46 4.44 5.82 12.33 3.65-.98 8.33 9.87 8.43 4.74 24.78 7.76 19.47 8.66 28.48 9.66 16.14 56.25 38.62 99.03 7.33 10.78 29.51 71.12 14.98 17.97-29.82 15.4-10.41 49.2 7.15 4.98 4.67 14.38-12.36 7.22-19.95 1.68-19.62-9.69-23.28 12.81-6.13-13.8-16.16 16.23-4.55-16.59-22.87.93-20.87 28.75-15.42-30.64-9.73 2.81-19.2-11.42-3.45 10.08-57.26 10.1-18.7-17.79-14.95-21.92-22.88 2.83-10.25-30.78-17.38-40.94-18.47 2.49-23.05 10.16-22.11-23.33-50.62 4.47-10.5-36.33-15.01-18.43 1.7-12.45-10.99-5.07-16.13 20.95-27.53z" /></g></g></svg>