<svg xmlns="http://www.w3.org/2000/svg" width="195" height="196" version="1.1"><rect id="backgroundrect" width="100%" height="100%" x="0" y="0" fill="none" stroke="none"/>





<g class="currentLayer"><title>Layer 1</title><path fill="#fe7e1b" d="M0.23685932159423828,31.66999626159668 C-0.16314077377319336,21.12000274658203 0.0468592643737793,10.560001373291016 0.12685918807983398,0 C43.986857414245605,0.3800010681152344 87.85685634613037,-0.07999801635742188 131.70685482025146,0.23000335693359375 C149.66686153411865,2.5100021362304688 167.31685543060303,11.050003051757812 178.65685176849365,25.430002212524414 C189.1068639755249,38.99999809265137 195.56685543060303,56.05000114440918 194.9368658065796,73.30000114440918 C194.94686031341553,114.07999992370605 194.91686153411865,154.850004196167 194.94686031341553,195.63000297546387 C184.38686275482178,195.41000175476074 173.8068609237671,195.43000602722168 163.23685359954834,195.66000175476074 C162.91686153411865,152.9000072479248 163.2268590927124,110.1399974822998 163.08685970306396,67.3700008392334 C163.27686214447021,57.89999961853027 157.75685787200928,49.34000205993652 151.23685359954834,42.91999626159668 C143.62685298919678,36.41999626159668 134.00685787200928,30.92999839782715 123.67685604095459,31.58000373840332 C82.53685665130615,31.660001754760742 41.38685894012451,31.480005264282227 0.23685932159423828,31.66999626159668 z" id="svg_2" class=""/><path fill="#fe7e1b" d="M0.05685901641845703,54.66999626159668 C6.976859092712402,55.09000205993652 14.046858787536621,53.92999839782715 20.86685848236084,55.41999626159668 C27.156859397888184,56.85000038146973 31.826857566833496,62.819997787475586 31.756857872009277,69.2700023651123 C32.13685894012451,111.35000419616699 31.576857566833496,153.44000053405762 32.03686046600342,195.5200023651123 C21.406859397888184,195.589994430542 10.75685977935791,195.29000663757324 0.13685894012451172,195.69000053405762 C-0.08314085006713867,148.68000602722168 0.0768589973449707,101.68000602722168 0.05685901641845703,54.66999626159668 z" id="svg_3" class=""/><path fill="#fe7e1b" d="M50.996859550476074,54.85000038146973 C57.586859703063965,54.54000282287598 64.19686031341553,54.79000282287598 70.79685878753662,54.73000526428223 C74.23686122894287,54.64999961853027 77.60685634613037,55.82000160217285 80.54685878753662,57.56000328063965 C84.13686275482178,59.84000205993652 85.85685634613037,64.1399974822998 85.94686031341553,68.2700023651123 C86.09686183929443,110.49000358581543 85.73686122894287,152.7199993133545 86.12686061859131,194.94000053405762 C84.19686031341553,196.07000541687012 81.87686061859131,195.43000602722168 79.75685787200928,195.52999687194824 C71.23686122894287,195.54000663757324 62.706862449645996,195.339994430542 54.18685817718506,195.68000602722168 C54.016860008239746,154.55000114440918 54.156859397888184,113.41000175476074 54.12686061859131,72.27999687194824 C54.34685802459717,66.34000205993652 54.086859703063965,60.1200008392334 50.996859550476074,54.85000038146973 z" id="svg_4" class=""/><path fill="#fe7e1b" d="M105.90685939788818,54.700002670288086 C112.86685848236084,54.770002365112305 119.83685970306396,54.59999656677246 126.79686641693115,54.80000114440918 C133.49686336517334,54.99000358581543 139.90685176849365,60.35999870300293 139.9768590927124,67.32999992370605 C140.11685848236084,110.10000419616699 139.98685359954834,152.8899974822998 140.03685665130615,195.66999626159668 C129.74686336517334,195.41999626159668 119.43685817718506,195.35999870300293 109.14685726165771,195.69999504089355 C108.93685817718506,153.27999687194824 109.14685726165771,110.85000419616699 109.03685665130615,68.41999626159668 C108.98686122894287,63.64999961853027 107.52686214447021,59.13000297546387 105.90685939788818,54.700002670288086 z" id="svg_5" class=""/></g></svg>